# xmcd
#
# Track frame offsets:
# 150
# 24500
# 54700
# 70812
# 92372
# 110652
# 129190
# 151857
# 187895
# 214855
#
# Disc length: 2940 seconds
#
# Revision: 0
# Processed by: cddbd v1.4PL0 Copyright (c) Steve Scherf et al.
# Submitted via: Audion 3.0.2 (http://www.panic.com/audion/)
#
DISCID=7c0b7a0a
DTITLE=River of Life Choir - Joy in the World
DYEAR=1900
DGENRE=
TTITLE0=Joy in the Land
TTITLE1=What Child is this
TTITLE2=Messiah Lord and King
TTITLE3=Psalm 8 4:46
TTITLE4=Angels We Have Heard on High
TTITLE5=Go tell it on the Mountain
TTITLE6=Oh come Emmanuel
TTITLE7=Silent Night
TTITLE8=Halleujah
TTITLE9=Joy in the Land (reprise)
EXTD=
EXTT0=
EXTT1=
EXTT2=
EXTT3=
EXTT4=
EXTT5=
EXTT6=
EXTT7=
EXTT8=
EXTT9=
PLAYORDER=
